<svg width="219" height="45" viewBox="0 0 219 45" fill="none" xmlns="http://www.w3.org/2000/svg">
<path d="M56.1435 10.7624V21.8644H58.5386C59.6975 21.8644 60.5474 21.7374 61.0882 21.4833C61.6548 21.2293 62.0926 20.6958 62.4274 19.9082C62.7622 19.1206 62.9167 17.9266 62.9167 16.3261C62.9167 14.6239 62.7107 13.3537 62.2986 12.5661C61.8865 11.7786 61.3457 11.2705 60.7534 11.0672C60.1353 10.864 59.0794 10.7624 57.6114 10.7624H56.1435ZM52.95 7.94238H58.7704C60.0838 7.94238 61.1397 8.06941 61.9381 8.32346C62.7364 8.57751 63.4833 9.06021 64.1529 9.82236C64.8225 10.5591 65.3375 11.4991 65.6723 12.5661C66.0071 13.6585 66.1874 14.9542 66.1874 16.4531C66.1874 18.8666 65.6466 20.8482 64.5392 22.3979C63.4575 23.9476 61.5775 24.7098 58.9249 24.7098H52.95V7.94238Z" fill="black"/>
<path d="M73.3674 24.7098L67.9518 7.94238H71.2654L75.0983 20.3589L78.8076 7.94238H82.0717L76.6315 24.7098H73.3674Z" fill="black"/>
<path d="M90.9665 18.1365V15.2639H97.9571V22.0702C97.3287 22.7172 96.3862 23.3383 95.1032 23.8818C93.8203 24.4511 92.485 24.7099 91.0974 24.7099C88.5577 24.7099 86.5679 23.8818 85.1278 22.2514C83.6878 20.621 82.9547 18.473 82.9547 15.8332C82.9547 14.1511 83.2689 12.6242 83.9234 11.2784C84.5518 9.93269 85.4682 8.89751 86.6726 8.17288C87.8508 7.44825 89.2908 7.06006 90.9403 7.06006C94.8152 7.06006 97.0931 8.74223 97.7738 12.0807L94.5272 12.7018C94.2916 11.8219 93.8727 11.149 93.2181 10.6832C92.5636 10.2174 91.8043 9.98445 90.9403 9.98445C89.4741 9.98445 88.3221 10.4762 87.5104 11.4337C86.6988 12.3913 86.2798 13.8146 86.2798 15.6521C86.2798 17.5154 86.6726 18.9905 87.458 20.0775C88.2435 21.1644 89.3955 21.7338 90.8617 21.7338C91.5686 21.7338 92.2232 21.6044 92.8516 21.3715C93.4799 21.1127 94.0821 20.7504 94.6581 20.2845V18.1365H90.9665Z" fill="black"/>
<path d="M209.862 24.3994V17.2307L204.047 7.34473H207.794L211.517 14.0993L215.161 7.34473H218.857L213.016 17.2566V24.4253H209.862V24.3994ZM189.753 24.3994V7.31885H192.854L199.342 18.7317V7.34473H202.315V24.4253H199.11L192.725 13.297V24.4253H189.753V24.3994ZM182.127 17.6448L179.93 11.3043L177.811 17.6448H182.127ZM188.021 24.3994H184.531L183.136 20.5174H176.803L175.485 24.3994H172.124L178.302 7.31885H181.688L188.021 24.3994ZM162.095 10.2174V15.0568H163.853C164.835 15.0568 165.559 15.0051 166.05 14.9016C166.541 14.7981 166.929 14.5393 167.265 14.1511C167.601 13.737 167.756 13.2453 167.756 12.6242C167.756 12.0031 167.575 11.4855 167.239 11.0714C166.903 10.6573 166.489 10.4244 166.05 10.3209C165.585 10.2432 164.809 10.1915 163.672 10.1915H162.095V10.2174ZM158.916 24.3994V7.31885H164.06C166.024 7.31885 167.368 7.42237 168.118 7.65529C168.867 7.8882 169.565 8.43168 170.16 9.2857C170.754 10.1397 171.065 11.2526 171.065 12.5724C171.065 13.8923 170.754 15.0051 170.16 15.8591C169.565 16.7131 168.867 17.2825 168.04 17.5672C167.213 17.826 165.947 17.9812 164.189 17.9812H162.095V24.4253H158.916V24.3994ZM140.409 24.3994V7.31885H145.191L148.06 18.9647L150.903 7.31885H155.711V24.3994H152.738V10.9679L149.585 24.3994H146.509L143.381 10.9679V24.3994H140.409ZM125.882 15.8591C125.882 17.8518 126.296 19.327 127.149 20.2845C128.002 21.2421 129.036 21.7338 130.276 21.7338C131.491 21.7338 132.525 21.2421 133.378 20.2845C134.231 19.327 134.645 17.826 134.645 15.8074C134.645 13.8923 134.257 12.443 133.482 11.4596C132.706 10.4762 131.646 9.98445 130.276 9.98445C128.907 9.98445 127.821 10.4762 127.045 11.4855C126.27 12.4948 125.882 13.944 125.882 15.8591ZM122.574 15.9885C122.574 13.2194 123.246 11.0196 124.616 9.44098C125.96 7.86233 127.847 7.06006 130.251 7.06006C132.654 7.06006 134.541 7.86233 135.911 9.46686C137.281 11.0714 137.953 13.2194 137.953 15.9109C137.953 18.6024 137.281 20.7245 135.911 22.329C134.541 23.9335 132.758 24.7099 130.509 24.7099C128.726 24.7099 127.304 24.3735 126.193 23.7006C125.081 23.0278 124.202 22.0443 123.556 20.6986C122.91 19.3787 122.574 17.8001 122.574 15.9885ZM117.482 18.1365L120.584 19.1976C119.679 22.8725 117.508 24.7099 113.992 24.7099C111.692 24.7099 109.908 23.8818 108.668 22.2255C107.401 20.5692 106.781 18.4988 106.781 16.0403C106.781 13.3747 107.427 11.2008 108.719 9.5445C110.012 7.8882 111.873 7.06006 114.277 7.06006C115.776 7.06006 117.068 7.47413 118.205 8.30228C119.343 9.13042 120.118 10.3726 120.532 12.0548L117.378 12.8571C117.197 11.9772 116.81 11.2784 116.215 10.7608C115.621 10.2432 114.897 9.98445 114.044 9.98445C112.726 9.98445 111.743 10.4762 111.071 11.4855C110.399 12.4689 110.089 13.9699 110.089 15.9626C110.089 17.9812 110.451 19.4564 111.175 20.388C111.899 21.2938 112.829 21.7597 113.992 21.7597C115.776 21.7597 116.965 20.5433 117.482 18.1365Z" fill="black"/>
<path d="M162.769 35.8185L161.618 32.3574L160.494 35.8185H162.769ZM165.908 39.523H164.051L163.319 37.3869H159.944L159.238 39.523H157.433L160.703 30.1671H162.508L165.908 39.523ZM155.21 36.0889L156.858 36.6838C156.387 38.6848 155.21 39.7123 153.353 39.7123C152.124 39.7123 151.182 39.2526 150.528 38.3333C149.848 37.4139 149.534 36.2782 149.534 34.9532C149.534 33.4931 149.874 32.3033 150.554 31.3839C151.234 30.4646 152.228 30.0319 153.51 30.0319C154.295 30.0319 155.001 30.2482 155.603 30.7079C156.204 31.1676 156.623 31.8436 156.832 32.763L155.158 33.2227C155.053 32.7359 154.844 32.3574 154.53 32.087C154.216 31.8166 153.824 31.6543 153.379 31.6543C152.673 31.6543 152.15 31.9247 151.81 32.4655C151.47 33.0063 151.287 33.8176 151.287 34.9262C151.287 36.0348 151.47 36.846 151.862 37.3598C152.255 37.8736 152.751 38.1169 153.353 38.1169C154.321 38.0629 154.922 37.3869 155.21 36.0889ZM146.474 39.523V30.1671H148.174V39.523H146.474ZM141.243 39.523V31.7355H138.758V30.1401H145.454V31.7355H142.969V39.523H141.243ZM131.643 34.8451C131.643 35.9267 131.879 36.7379 132.323 37.2787C132.768 37.8195 133.317 38.0899 133.971 38.0899C134.625 38.0899 135.174 37.8195 135.619 37.3057C136.064 36.792 136.299 35.9537 136.299 34.8451C136.299 33.7905 136.09 33.0063 135.671 32.4655C135.253 31.9247 134.704 31.6543 133.971 31.6543C133.239 31.6543 132.663 31.9247 132.245 32.4655C131.853 32.9793 131.643 33.7905 131.643 34.8451ZM129.891 34.8992C129.891 33.3849 130.257 32.1681 130.963 31.3028C131.669 30.4375 132.69 30.0049 133.945 30.0049C135.227 30.0049 136.221 30.4375 136.953 31.3299C137.685 32.2222 138.025 33.3849 138.025 34.8721C138.025 36.3323 137.659 37.5221 136.953 38.3873C136.221 39.2526 135.279 39.6853 134.076 39.6853C133.134 39.6853 132.376 39.496 131.774 39.1445C131.199 38.7659 130.728 38.2251 130.362 37.495C130.074 36.7649 129.891 35.8996 129.891 34.8992ZM123.509 35.44V37.9547H125.078C125.706 37.9547 126.098 37.9277 126.334 37.8736C126.543 37.8195 126.726 37.7113 126.883 37.495C127.04 37.3057 127.118 37.0353 127.118 36.7108C127.118 36.3864 127.04 36.116 126.883 35.9267C126.726 35.7104 126.517 35.5752 126.229 35.5211C125.967 35.467 125.523 35.44 124.895 35.44H123.509ZM123.509 31.7084V33.8716H125.34C125.837 33.8716 126.203 33.7905 126.438 33.6012C126.674 33.4119 126.804 33.1415 126.804 32.79C126.804 32.4926 126.726 32.2492 126.569 32.087C126.412 31.8977 126.229 31.7895 125.993 31.7625C125.758 31.7355 125.261 31.7084 124.476 31.7084H123.509ZM121.808 30.1671H125.183C125.967 30.1671 126.569 30.2212 126.961 30.3294C127.354 30.4375 127.694 30.7079 128.008 31.1135C128.321 31.5191 128.452 32.0059 128.452 32.5467C128.452 32.9793 128.348 33.3849 128.138 33.7364C127.929 34.115 127.641 34.3854 127.275 34.5476C127.772 34.7099 128.164 34.9803 128.452 35.3859C128.74 35.7915 128.871 36.2782 128.871 36.819C128.871 37.468 128.688 38.0358 128.348 38.5225C128.008 39.0093 127.615 39.3067 127.171 39.3878C126.726 39.4689 125.915 39.523 124.686 39.523H121.808V30.1671ZM113.308 30.1671H115.008V35.2236C115.008 36.0078 115.034 36.5756 115.086 36.9001C115.139 37.2246 115.322 37.495 115.583 37.7113C115.871 37.9547 116.237 38.0629 116.708 38.0629C117.179 38.0629 117.519 37.9547 117.78 37.7384C118.042 37.5221 118.199 37.2517 118.225 36.9542C118.277 36.6297 118.304 36.0889 118.304 35.3318V30.1671H120.004V35.0884C120.004 36.2782 119.925 37.1705 119.794 37.7384C119.664 38.3062 119.35 38.7659 118.827 39.1445C118.304 39.523 117.623 39.6853 116.734 39.6853C115.793 39.6853 115.06 39.523 114.563 39.1715C114.066 38.847 113.726 38.4144 113.543 37.8736C113.36 37.3598 113.281 36.4404 113.281 35.1425V30.1671H113.308ZM105.016 36.4675L106.664 36.2782C106.847 37.468 107.449 38.0629 108.495 38.0629C109.018 38.0629 109.41 37.9277 109.698 37.7113C109.986 37.468 110.143 37.1705 110.143 36.792C110.143 36.4404 110.012 36.1971 109.777 36.0348C109.541 35.8726 108.94 35.6563 107.998 35.4129C106.873 35.1155 106.141 34.6828 105.801 34.1961C105.461 33.6823 105.304 33.1686 105.304 32.6278C105.304 31.8436 105.565 31.1947 106.115 30.735C106.664 30.2482 107.396 30.0049 108.39 30.0049C109.384 30.0049 110.143 30.2482 110.718 30.735C111.294 31.2217 111.581 31.9247 111.607 32.8441L109.907 32.9252C109.803 32.0329 109.306 31.5732 108.39 31.5732C107.946 31.5732 107.606 31.6543 107.344 31.8166C107.082 31.9788 106.952 32.1951 106.952 32.4926C106.952 32.7359 107.056 32.9252 107.239 33.1145C107.449 33.2767 107.972 33.4931 108.835 33.7094C109.62 33.9257 110.195 34.142 110.614 34.3854C111.006 34.6288 111.32 34.9532 111.529 35.3588C111.738 35.7644 111.843 36.2512 111.843 36.819C111.843 37.6032 111.581 38.2792 111.032 38.847C110.483 39.4149 109.646 39.6853 108.469 39.6853C106.402 39.6853 105.251 38.6037 105.016 36.4675Z" fill="black"/>
<path d="M22.4379 43.8748C34.5536 43.8748 44.3753 34.0531 44.3753 21.9374C44.3753 9.8217 34.5536 0 22.4379 0C10.3222 0 0.500488 9.8217 0.500488 21.9374C0.500488 34.0531 10.3222 43.8748 22.4379 43.8748Z" fill="url(#paint0_linear_1_651)"/>
<path d="M2.82666 9.73438C3.11295 12.5615 7.87262 17.8938 12.4891 18.8958C17.0341 19.8621 18.3224 20.2557 30.3468 17.6433C33.174 17.0349 38.1841 16.7844 41.4765 20.8999C44.3753 24.5144 45.6278 30.0613 38.9357 36.3241C44.3037 25.8027 35.6075 22.5819 30.0247 23.7271C4.93809 28.6657 -0.000507355 14.6014 2.82666 9.73438Z" fill="#D81F26"/>
<path d="M0.285645 15.5674C0.285645 15.5674 4.90216 30.1684 19.3243 29.739C23.1535 29.6316 31.9213 26.6613 34.3906 32.2799C36.6809 37.5048 29.953 42.4076 29.953 42.4076C29.953 42.4076 33.818 36.1091 28.4142 34.8207C26.3027 34.3197 21.8652 34.5702 19.6822 34.5702C1.96763 34.5702 0.285645 15.5674 0.285645 15.5674Z" fill="#D81F26"/>
<path d="M0 23.3691C6.33429 40.0101 19.2534 40.69 25.0508 39.5806C25.8739 39.4375 27.9496 39.3301 28.2717 40.6542C28.7011 42.4078 26.876 43.1951 25.9813 43.5172C17.7861 46.2012 1.50305 39.3301 0 23.3691Z" fill="#D81F26"/>
<defs>
<linearGradient id="paint0_linear_1_651" x1="22.4428" y1="-0.212109" x2="22.4428" y2="43.8811" gradientUnits="userSpaceOnUse">
<stop stop-color="#D7D6D5"/>
<stop offset="0.2576" stop-color="#797878"/>
<stop offset="0.357" stop-color="#9B9999"/>
<stop offset="0.461" stop-color="#BEBBBB"/>
<stop offset="0.5575" stop-color="#D9D8D7"/>
<stop offset="0.6427" stop-color="#EDECEC"/>
<stop offset="0.7076" stop-color="#F5F5F5"/>
<stop offset="0.9968" stop-color="#ABABAB"/>
</linearGradient>
</defs>
</svg>
